<svg width="103" height="19" viewBox="0 0 103 19" fill="none" xmlns="http://www.w3.org/2000/svg">
<path d="M7.656 1.008H10.704L12.624 6.648L14.544 1.008H17.616L14.712 8.76L16.872 14.208L21.696 0.959999H25.296L18.36 18H15.576L12.624 10.848L9.672 18H6.888L0 0.959999H3.552L8.4 14.208L10.512 8.76L7.656 1.008ZM30.4365 0.959999H33.3645L39.8445 18H36.4365L34.8525 13.752H28.9005L27.3405 18H23.9325L30.4365 0.959999ZM34.2525 11.424L31.9005 4.728L29.4525 11.424H34.2525ZM41.7135 18V0.959999H45.0255V15.096H53.7135V18H41.7135ZM55.7291 18V0.959999H59.0411V15.096H67.7291V18H55.7291ZM69.7448 18V0.959999H73.0568V18H69.7448ZM88.4439 15.096V18H76.6119V0.959999H88.2279V3.864H79.9239V7.968H87.0999V10.656H79.9239V15.096H88.4439ZM100.826 5.424C100.714 5.312 100.506 5.16 100.202 4.968C99.9144 4.776 99.5544 4.592 99.1224 4.416C98.7064 4.224 98.2504 4.064 97.7544 3.936C97.2584 3.808 96.7544 3.744 96.2424 3.744C95.3304 3.744 94.6504 3.912 94.2024 4.248C93.7544 4.584 93.5304 5.056 93.5304 5.664C93.5304 6.016 93.6104 6.312 93.7704 6.552C93.9464 6.776 94.1944 6.976 94.5144 7.152C94.8344 7.328 95.2344 7.488 95.7144 7.632C96.2104 7.776 96.7784 7.928 97.4184 8.088C98.2504 8.312 99.0024 8.552 99.6744 8.808C100.362 9.064 100.938 9.384 101.402 9.768C101.882 10.152 102.25 10.616 102.506 11.16C102.762 11.688 102.89 12.344 102.89 13.128C102.89 14.04 102.714 14.824 102.362 15.48C102.026 16.12 101.562 16.64 100.97 17.04C100.394 17.44 99.7224 17.736 98.9544 17.928C98.2024 18.104 97.4104 18.192 96.5784 18.192C95.2984 18.192 94.0344 18 92.7864 17.616C91.5384 17.232 90.4184 16.688 89.4264 15.984L90.8904 13.128C91.0344 13.272 91.2904 13.464 91.6584 13.704C92.0424 13.928 92.4904 14.16 93.0024 14.4C93.5144 14.624 94.0824 14.816 94.7064 14.976C95.3304 15.136 95.9704 15.216 96.6264 15.216C98.4504 15.216 99.3624 14.632 99.3624 13.464C99.3624 13.096 99.2584 12.784 99.0504 12.528C98.8424 12.272 98.5464 12.048 98.1624 11.856C97.7784 11.664 97.3144 11.488 96.7704 11.328C96.2264 11.168 95.6184 10.992 94.9464 10.8C94.1304 10.576 93.4184 10.336 92.8104 10.08C92.2184 9.808 91.7224 9.496 91.3224 9.144C90.9224 8.776 90.6184 8.36 90.4104 7.896C90.2184 7.416 90.1224 6.848 90.1224 6.192C90.1224 5.328 90.2824 4.56 90.6024 3.888C90.9224 3.216 91.3624 2.656 91.9224 2.208C92.4984 1.76 93.1624 1.424 93.9144 1.2C94.6664 0.959999 95.4744 0.839999 96.3384 0.839999C97.5384 0.839999 98.6424 1.032 99.6504 1.416C100.658 1.784 101.538 2.224 102.29 2.736L100.826 5.424Z" fill="#4C545B"/>
</svg>
